<?xml version="1.0" encoding="UTF-8"?><svg id="Layer_1" xmlns="http://www.w3.org/2000/svg" viewBox="0 0 500 230"><defs><style>.cls-1{fill:#121919;}</style></defs><g><path class="cls-1" d="M297.72,155.37l-9.86-23.94h-44.03l-9.86,23.94h-11.39l43.2-90.62,43.33,90.62h-11.39Zm-50.18-33.02h36.48l-18.3-38.61-18.18,38.61Z"/><path class="cls-1" d="M423.85,138.86l9.15-6.21,.71,1.47c5.63,10.24,11.78,14.34,21.12,14.34,10.37,0,17.66-7.17,17.66-15.87,0-8.19-4.1-13.7-20.48-20.48-18.82-7.81-25.22-15.87-25.22-27.39,0-12.54,9.86-22.4,26.88-22.4,12.54,0,21.12,5.38,25.98,14.08l-7.42,5.12-2.18-.51c-3.84-6.02-8.58-9.47-16.64-9.47-9.86,0-15.62,5.5-15.62,12.93,0,6.91,3.71,10.88,19.71,18.18,20.86,9.47,25.98,17.28,25.98,29.82,0,13.7-11.78,25.34-28.54,25.34-14.08,0-23.81-5.38-31.1-18.94Z"/><path class="cls-1" d="M324.59,155.62V65.13h6.77l41.03,46.53c6.01,6.9,11.89,13.68,17.9,20.45h.38V65.13h10.48v92.29h-2.17l-45.5-51.38-18.02-20.45h-.38v70.05h-10.48Z"/></g><g><path class="cls-1" d="M145.38,129.45H77.05c-1.3,0-2.54-.56-3.4-1.53l-4.53-5.12c-.68-.76-1.65-1.2-2.67-1.2s-1.99,.44-2.67,1.2l-3.89,4.39c-1.27,1.44-3.1,2.26-5.02,2.26h-18.29l-11.46-11.46-8.61,8.61,74.48,74.48,74.48-74.48-8.61-8.61-11.46,11.46Zm-94.52,14.3l5.02-5.24c.67-.7,1.6-1.1,2.57-1.1h.22c1.02,0,1.99,.44,2.67,1.2l4.53,5.12c.86,.98,2.1,1.53,3.4,1.53h60.28l-38.59,38.59-40.11-40.11Z"/><path class="cls-1" d="M85.64,105.16c1.02,0,1.99-.41,2.69-1.15l5.38-5.61c.67-.7,1.6-1.1,2.57-1.1h.22c1.02,0,1.99,.44,2.67,1.2l4.53,5.12c.86,.97,2.1,1.53,3.4,1.53h36.91l12.82,12.82,8.61-8.61L90.98,34.9,26.37,99.51c-1.09,.93-2.06,1.87-2.81,2.81l-7.06,7.06,8.61,8.61,12.56-12.56,47.97-.26Zm42.72-15.66h-13.78c-1.3,0-2.54-.56-3.4-1.53l-4.53-5.12c-.68-.76-1.65-1.2-2.67-1.2s-1.99,.44-2.67,1.2l-3.89,4.39c-1.27,1.44-3.1,2.26-5.02,2.26H53.59l37.39-37.39,37.39,37.39Z"/></g></svg>