<svg width="100%" height="100%" viewBox="0 0 20 20" fill="none" xmlns="http://www.w3.org/2000/svg">
<path d="M15.0042 10H5.00427C5.00427 7.25293 7.25268 4.99545 10.0088 4.99545C12.7649 4.99545 15.0133 7.24387 15.0133 10H15.0042Z" fill="currentColor"/>
<path d="M9.99996 0C4.47869 0 0 4.47869 0 10C0 15.5213 4.47869 20 9.99996 20C15.5213 20 20 15.5213 20 10C20 4.47869 15.5303 0 9.99996 0ZM9.99996 17.5068C5.87488 17.5068 2.4932 14.1342 2.4932 10C2.4932 5.86581 5.87488 2.50226 9.99996 2.50226C14.1251 2.50226 17.5068 5.87488 17.5068 10.009C17.5068 14.1433 14.1341 17.5158 9.99996 17.5158V17.5068Z" fill="currentColor"/>
</svg>
