<svg width="100%" height="100%" viewBox="0 0 20 20" fill="none" xmlns="http://www.w3.org/2000/svg">
<path d="M10 0C4.48502 0 0 4.48084 0 9.99067C0 13.9509 2.31843 17.3822 5.6709 18.9974V19.0056H5.68732C6.9922 19.6329 8.45712 19.9854 10 19.9854C15.515 19.9854 20 15.5046 20 9.99476C20 4.48084 15.515 0 10 0ZM10 0.819916C15.0595 0.819916 19.1793 4.9359 19.1793 9.99067C19.1793 11.4419 18.8388 12.8194 18.2355 14.041C16.9142 13.4015 15.5724 12.926 14.2183 12.6021V4.9523C14.2183 4.68582 14.009 4.47264 13.7464 4.47264H12.064H7.82519H6.1428C5.88429 4.47264 5.6709 4.68582 5.6709 4.9523V12.639C4.35782 12.9629 3.05293 13.4302 1.76857 14.0451C1.16127 12.8194 0.820681 11.446 0.820681 9.99067C0.820681 4.9359 4.9405 0.819916 10 0.819916ZM2.2979 14.9675C3.38531 14.4306 4.51374 14.0165 5.67501 13.7295V18.075C4.30037 17.3412 3.1391 16.2671 2.2979 14.9675ZM7.82519 18.899V8.66241C7.82519 7.47764 8.7977 6.49784 9.95895 6.49784C11.1202 6.49784 12.064 7.45713 12.064 8.63782C12.064 8.64602 12.0599 8.65422 12.0599 8.66241H12.064V12.225C11.075 12.1102 10.0821 12.0732 9.08905 12.1266L8.27247 13.3113C9.54448 13.2048 10.7837 13.213 12.0066 13.3524C12.0189 13.3524 12.027 13.3524 12.0394 13.3565C12.0476 13.3565 12.0558 13.3565 12.0681 13.3606C12.2815 13.3851 13.057 13.4835 13.767 13.6598L12.0681 14.2378V18.9319C11.4033 19.0835 10.714 19.1696 10.0082 19.1696C9.24908 19.1614 8.52277 19.0671 7.82519 18.899ZM14.2142 18.1325V13.75C15.3713 14.041 16.5162 14.4674 17.6651 15.025C16.8034 16.3328 15.6134 17.4069 14.2142 18.1325Z" fill="url(#paint0_linear_1_5)"/>
<defs>
<linearGradient id="paint0_linear_1_5" x1="0.3125" y1="9.99276" x2="20.313" y2="9.96562" gradientUnits="userSpaceOnUse">
<stop offset="0.0858" stop-color="#8D29C1"/>
<stop offset="0.2383" stop-color="#942BBB"/>
<stop offset="0.4667" stop-color="#A92FAC"/>
<stop offset="0.7413" stop-color="#CA3793"/>
<stop offset="1" stop-color="#F03F77"/>
</linearGradient>
</defs>
</svg>
