<svg width="100%" height="100%" viewBox="0 0 20 21" fill="none" xmlns="http://www.w3.org/2000/svg">
<path fill-rule="evenodd" clip-rule="evenodd" d="M12.5163 0.0223179C12.5036 0.0376455 12.4221 0.16492 12.3355 0.305131C11.784 1.19709 11.0189 2.27319 10.2113 3.29259C10.0352 3.51494 10.0071 3.54675 9.98618 3.54729C9.97454 3.54757 9.5816 3.05079 9.29291 2.67077C8.66438 1.84332 8.1349 1.08263 7.69195 0.370664C7.51771 0.0906073 7.48761 0.0502008 7.45322 0.0502008C7.36368 0.0502008 5.7591 1.48935 4.76793 2.45861C4.62049 2.6028 4.62026 2.6019 4.82991 2.73494C5.93454 3.43602 8.41545 5.4059 8.33845 5.52076C8.18438 5.75059 5.60754 8.44317 5.29888 8.69683L5.25639 8.73177L5.22429 8.69065C5.20662 8.66803 5.06533 8.48922 4.9103 8.29332C4.03584 7.18827 3.21935 6.02565 2.66839 5.10101C2.51323 4.84063 2.50727 4.8333 2.468 4.85527C2.34173 4.92588 0.0857165 7.62046 0.0373913 7.75837C0.0263507 7.7899 0.0459922 7.80879 0.190388 7.9055C0.883428 8.36962 1.69887 8.98099 2.43915 9.59152C2.88469 9.95898 3.40038 10.4045 3.40016 10.4219C3.39838 10.5493 1.15857 12.3149 0.17514 12.964C0.0206934 13.066 0.000427268 13.0839 2.89174e-07 13.1189C-0.000960424 13.2004 2.3922 16.055 2.46141 16.055C2.48928 16.055 2.5115 16.0236 2.65335 15.7842C3.20087 14.8597 4.02565 13.6869 4.98397 12.4701C5.11165 12.3079 5.22933 12.1657 5.24546 12.1539C5.27823 12.1299 5.35764 12.2046 6.15269 13.0059C6.83052 13.6891 8.29417 15.2528 8.34742 15.3506C8.36485 15.3827 8.33333 15.4129 7.85793 15.8189C6.73771 16.7757 5.68886 17.5723 4.77282 18.1617C4.55843 18.2998 4.55547 18.2814 4.83686 18.5597C5.61309 19.3274 7.25053 20.8184 7.39399 20.8882C7.43793 20.9096 7.41226 20.9435 7.67887 20.5107C8.1746 19.706 8.87713 18.7142 9.6631 17.7098C9.82519 17.5026 9.96744 17.3291 9.97908 17.3245C10.0659 17.2896 11.4843 19.2137 12.1795 20.3092C12.3324 20.5502 12.4684 20.7635 12.4816 20.7832C12.5353 20.8633 12.7962 20.651 14.0216 19.5289C15.3443 18.3178 15.3827 18.2736 15.2099 18.1614C14.7148 17.8402 13.9142 17.2643 13.3811 16.846C12.5885 16.2239 11.6427 15.4201 11.6427 15.3686C11.6427 15.2856 13.3898 13.4304 14.4066 12.4336C14.5764 12.267 14.7155 12.1253 14.7155 12.1187C14.7155 12.0943 13.9924 11.2275 13.537 10.7057L13.2963 10.4301L13.5217 10.1714C13.8334 9.81363 14.1616 9.42616 14.4559 9.06837C14.7588 8.70015 14.6871 8.70471 15.0304 9.03183C15.4099 9.3936 15.8894 9.83574 16.2441 10.1514C16.5855 10.4551 16.5793 10.4109 16.3135 10.6457C15.8413 11.0631 14.7307 12.0973 14.7307 12.1198C14.7307 12.1248 14.7933 12.2073 14.8701 12.3034C15.8689 13.5546 16.7251 14.762 17.3094 15.743C17.4997 16.0624 17.485 16.0539 17.6099 15.9176C18.3783 15.0784 19.9607 13.1749 19.9611 13.0894C19.9611 13.0728 19.8694 13.0019 19.7136 12.8981C18.7892 12.2817 16.5912 10.5432 16.5912 10.4282C16.5912 10.3646 17.9554 9.23906 18.7698 8.63092C19.0788 8.40016 19.8123 7.88529 19.9339 7.8139C20.0399 7.75155 20.0484 7.77022 19.7317 7.36884C19.1265 6.60162 18.1408 5.43676 17.6258 4.88011C17.5145 4.75988 17.5328 4.74553 17.2928 5.14199C16.7195 6.08938 16.0058 7.10848 15.1565 8.19204C14.8372 8.59954 14.7302 8.72834 14.7156 8.72273C14.6151 8.68408 11.6609 5.59829 11.6232 5.49268C11.6152 5.47034 12.4748 4.73646 13.0456 4.27837C13.8246 3.65304 14.4901 3.16838 15.2565 2.66798C15.3342 2.61723 15.3711 2.58322 15.3711 2.56262C15.3711 2.48871 13.7226 0.970767 12.7672 0.164968C12.5479 -0.0199687 12.5503 -0.0185826 12.5163 0.0223179ZM10.1647 3.78254C10.5026 4.20131 11.2495 5.08304 11.4928 5.35042C11.6204 5.49055 11.633 5.46525 11.2729 5.78854C10.7835 6.22775 10.0178 6.94426 10.0066 6.97341C10.002 6.98527 10.0185 7.00203 10.4911 7.46804C11.4342 8.39803 13.282 10.3583 13.282 10.4288C13.282 10.474 11.9664 11.8963 11.2236 12.6542C10.8326 13.0531 10.1265 13.7541 10.0228 13.8463L9.98927 13.876L9.65792 13.5515C8.7856 12.697 7.81917 11.6872 7.00146 10.7759L6.69106 10.43L6.87184 10.2277C7.78105 9.20995 8.86079 8.08096 9.77079 7.19643C9.88194 7.08841 9.9729 6.99121 9.9729 6.98041C9.9729 6.9495 9.41961 6.42467 8.73461 5.80581C8.55261 5.64139 8.39947 5.49971 8.39431 5.49098C8.38914 5.48223 8.48713 5.35865 8.61207 5.21635C8.94421 4.83804 9.32683 4.38661 9.67192 3.96578C10.0288 3.53069 9.97708 3.54994 10.1647 3.78254ZM5.5088 9.04158C5.83261 9.43435 6.15649 9.81709 6.43864 10.1405C6.72491 10.4687 6.7183 10.3957 6.48598 10.6628C6.16966 11.0265 5.8344 11.4222 5.54521 11.7732C5.22142 12.1662 5.30001 12.1552 4.98272 11.8523C4.59103 11.4784 4.18127 11.0999 3.80068 10.7602C3.38903 10.3928 3.38646 10.4698 3.82355 10.0781C4.22033 9.72259 4.74548 9.23606 5.05494 8.9373C5.16398 8.83205 5.25844 8.74908 5.26486 8.75291C5.2713 8.75674 5.38108 8.88665 5.5088 9.04158ZM10.2037 14.0821C10.5111 14.3746 10.9993 14.8258 11.311 15.1058C11.6375 15.399 11.6238 15.355 11.4503 15.5535C11.1426 15.9055 10.5871 16.5607 10.3162 16.8916C10.1583 17.0843 10.0203 17.2475 10.0096 17.2542C9.98181 17.2716 9.9488 17.2362 9.63545 16.8517C9.3332 16.481 8.85318 15.9149 8.56489 15.5893C8.46566 15.4772 8.38675 15.3789 8.38952 15.371C8.39228 15.3628 8.5318 15.2332 8.69953 15.0827C9.04982 14.7684 9.53149 14.3224 9.79753 14.0662C10.0181 13.8537 9.96126 13.8515 10.2037 14.0821Z" fill="currentColor"/>
</svg>
